<svg width="1950" height="1676" viewBox="0 0 1950 1676" fill="none" xmlns="http://www.w3.org/2000/svg">
<g clip-path="url(#clip0_253_35)">
<path opacity="0.24" fill-rule="evenodd" clip-rule="evenodd" d="M281.475 227.616L10.4885 1271.81C-56.7144 1537.05 211.633 1761.43 455.63 1644.02L1444.82 1239.47C1610.65 1159.67 1646.77 936.484 1514.8 807.152L778.138 85.2511C613.509 -76.0788 338.441 2.76681 281.475 227.616Z" fill="white"/>
<path d="M1859.14 996.966C1859.14 961.611 1830.9 932.947 1796.07 932.947C1761.24 932.947 1733 961.611 1733 996.971C1733 1032.33 1761.24 1061 1796.08 1061C1830.9 1061 1859.14 1032.33 1859.14 996.966Z" fill="#221E1A"/>
<path d="M1942.61 481.181C1940.92 480.396 1939.09 479.993 1937.24 480H1937.24H1836.04L1835.13 480.026C1831.57 480.253 1828.21 481.713 1825.59 484.16C1822.97 486.607 1821.26 489.893 1820.75 493.467L1765.01 874.17L1764.92 875.009C1764.78 876.79 1765 878.581 1765.57 880.27C1766.15 881.959 1767.06 883.508 1768.26 884.82C1769.45 886.132 1770.9 887.177 1772.52 887.891C1774.13 888.604 1775.88 888.969 1777.64 888.963H1841.85L1842.78 888.932C1846.11 888.714 1849.28 887.414 1851.83 885.225C1854.37 883.035 1856.15 880.072 1856.9 876.776L1949.66 495.87L1949.82 495.026C1950.13 493.174 1950.04 491.277 1949.54 489.467C1949.05 487.656 1948.18 485.977 1946.98 484.546C1945.78 483.115 1944.29 481.967 1942.61 481.181Z" fill="#221E1A"/>
<path d="M1713.59 869.003C1712.12 868.322 1710.83 867.978 1708.9 867.978H1708.9L1635.72 865H1613.55C1612.21 865 1607.45 868.782 1606.84 869.353C1606.11 870.027 1602.43 874.506 1601.98 877.605L1560.04 1197.54L1560.04 1205.36C1559.91 1206.9 1560.11 1208.46 1560.61 1209.92C1561.11 1211.39 1561.91 1212.73 1562.96 1213.87C1564 1215.01 1565.53 1215.45 1566.94 1216.07C1568.35 1216.69 1569.88 1217.01 1571.42 1217H1650.15H1658.14C1661.05 1216.81 1668.89 1214.56 1671.12 1212.66C1673.35 1210.76 1676.11 1203 1676.61 1199.94L1719.66 884.056L1719.81 883.324C1720.08 881.718 1720.09 877.757 1719.66 876.187C1719.23 874.618 1718.47 873.161 1717.42 871.92C1716.37 870.679 1715.06 869.684 1713.59 869.003Z" fill="#221E1A"/>
<path d="M1472.87 863.466C1471.41 862.802 1470.1 862.474 1468.23 862.495L1468.23 862.495L1386.34 862.495L1377.71 862.495C1374.64 862.727 1369.67 865.788 1367.44 867.935C1365.2 870.082 1363.76 872.947 1363.35 876.049L1316.27 1192.62L1315.05 1204.92C1314.94 1206.46 1314.54 1209.21 1315.05 1210.67C1315.56 1212.12 1316.36 1213.46 1317.41 1214.58C1318.45 1215.71 1319.71 1216.6 1321.12 1217.2C1322.52 1217.81 1327.54 1217.93 1329.06 1217.91L1409.61 1217.2L1410.42 1217.17C1413.29 1216.95 1408.24 1214.53 1410.42 1212.61C1412.59 1210.68 1429.32 1203.15 1429.94 1200.29L1476.84 880.353L1476.97 879.619C1476.84 880.352 1477.42 874.12 1477.71 871.808C1478.01 869.496 1477.73 867.569 1476.68 866.34C1475.63 865.111 1474.33 864.13 1472.87 863.466Z" fill="#221E1A"/>
<path d="M1677.89 977.194C1679.03 967.15 1671.05 958 1660.9 958H1392.16L1391.19 958.024C1386.65 958.215 1382.32 959.978 1378.91 963.018C1375.5 966.057 1373.23 970.189 1372.46 974.723L1332.31 1191.53L1332.18 1192.44C1330.56 1205.1 1340.32 1218 1353.11 1218L1615.06 1216.73L1616.05 1216.71C1620.62 1216.51 1624.97 1214.72 1628.39 1211.65C1631.81 1208.57 1634.07 1204.4 1634.8 1199.83L1642.44 1152.68L1642.56 1151.79C1643.65 1141.81 1635.73 1123.83 1625.63 1123.79L1448.99 1122.99L1448.22 1122.96C1440.8 1122.47 1435.17 1115.47 1436.37 1107.98L1448.07 1057.35L1448.22 1056.56C1448.83 1053.89 1450.31 1051.51 1452.44 1049.81C1454.56 1048.1 1457.2 1047.19 1459.9 1047.21H1651.11L1652.09 1047.19C1656.64 1047 1660.66 1036.51 1664.08 1033.45C1667.49 1030.39 1669.76 1026.24 1670.5 1021.68L1677.77 978.084L1677.89 977.194Z" fill="#221E1A"/>
<path d="M1711.52 757.114L1654.53 802.207C1646.46 809.726 1630.24 805.162 1621.56 789.904L1547.54 687.299C1541.04 675.85 1519.24 678.743 1509.21 687.299L1399.49 797.739C1391.41 804.258 1373.92 808.246 1363.96 797.738L1320.64 751.153C1316.8 744.308 1316.87 728.557 1316.87 728.557C1318.27 720.807 1322.31 713.804 1328.29 708.779L1503.73 548.042C1520.47 533.76 1571.93 538.737 1582.75 557.863L1696.42 708.779C1700.25 714.211 1709.49 727.571 1711.52 732.116C1713.56 736.662 1716.56 752.569 1711.52 757.114Z" fill="#221E1A"/>
<path d="M1768.91 492.509C1769.91 482.285 1762.23 473 1752.48 473H1370.1L1368.99 473.032C1364.93 473.268 1361.05 474.991 1358.02 477.915C1354.98 480.838 1352.97 484.788 1352.3 489.111L1341.22 560.429L1341.09 561.491C1340.09 571.728 1347.77 581 1357.53 581H1739.9L1741.01 580.968C1745.08 580.733 1748.95 579.009 1751.99 576.082C1755.02 573.155 1757.03 569.201 1757.69 564.875L1768.78 493.57L1768.91 492.509Z" fill="#221E1A"/>
<path fill-rule="evenodd" clip-rule="evenodd" d="M402.199 766.58C348.71 768.793 305.826 728.762 305.183 676.049C304.598 627.154 346.117 584.072 395.242 582.597C445.155 581.107 486.009 620.689 487.324 671.826C488.732 725.964 454.164 764.425 402.199 766.58ZM397.583 462C271.605 461.986 180.065 552.965 179.877 678.392C179.682 794.976 274.921 888.956 394.288 889.968C518.93 891.045 614.747 797.449 614.595 674.755C614.45 554.086 520.534 462 397.583 462Z" fill="#221E1A"/>
<path fill-rule="evenodd" clip-rule="evenodd" d="M924.85 1198.66C877.97 1200.46 840.386 1167.91 839.822 1125.05C839.31 1085.29 875.697 1050.26 918.753 1049.06C962.498 1047.85 998.303 1080.03 999.455 1121.62C1000.69 1165.64 970.393 1196.91 924.85 1198.66ZM920.804 951C810.393 950.988 730.165 1024.97 730 1126.95C729.829 1221.75 813.299 1298.17 917.917 1298.99C1027.16 1299.87 1111.13 1223.76 1111 1124C1110.87 1025.88 1028.56 951 920.804 951Z" fill="#221E1A"/>
<path d="M650.358 933.719L637.32 1009.35C637.353 1018.63 624.585 1025.96 611.044 1024.45L461.552 1024.45C452.511 1023.44 441.112 1027.32 441.112 1040.96L424.152 1207.56C424.185 1216.81 416.876 1224.98 403.352 1223.5L311.233 1223.5C305.585 1222.9 300.452 1220.96 296.76 1218.03C293.069 1215.11 291.062 1211.4 291.102 1207.56L308.256 1067.5C308.291 1064.23 311.399 1035.95 308.256 1033.45C305.112 1030.94 295.922 1024.98 291.102 1024.45L116.403 1024.45C104.027 1023.05 91.2073 1012.2 91.1772 1003.72L105.983 931.048C108.001 921.627 120.599 918.182 134.131 919.698L637.32 919.698C648.981 921.008 650.33 925.719 650.358 933.719Z" fill="#221E1A"/>
<path d="M769.152 830.377C756.651 830.377 744.269 837.834 744.693 849.802L734.308 908.997C734.437 913.928 736.082 922.957 739.327 926.625C742.573 930.293 746.999 932.665 751.809 933.315L1146.01 933.315C1160.09 933.315 1170.41 925.951 1173.14 913.142L1180.8 855.715C1180.41 844.78 1175.98 835.391 1165.4 833.934L1034.8 834.094C1030.68 833.538 1026.89 831.506 1024.11 828.364C1021.33 825.222 1019.75 821.175 1019.64 816.95L1022.84 784.701C1022.71 779.755 1020.85 775.019 1017.58 771.347C1014.32 767.675 1009.87 765.309 1005.05 764.677L946.648 764.677C935.088 763.129 923.63 772.754 924.053 784.701L917.59 816.95C915.959 825.95 908.349 830.524 896.62 830.524C896.62 830.524 781.654 830.377 769.152 830.377Z" fill="#221E1A"/>
<path d="M1231.86 468.787C1233.38 455.293 1222.68 443 1209.06 443H848.482L847.173 443.032C841.087 443.29 835.272 445.658 830.7 449.741C826.127 453.824 823.074 459.375 822.049 465.467L773.411 721.144L773.23 722.364C771.061 739.375 784.511 755 801.677 755H1152.8L1154.12 754.968C1160.24 754.707 1166.09 752.308 1170.68 748.176C1175.26 744.044 1178.3 738.433 1179.27 732.292L1187.85 676.225L1188 675.036C1189.48 661.618 1178.84 649.394 1165.3 649.338L913.725 648.256L912.69 648.218C902.73 647.567 895.176 638.164 896.797 628.091L908.487 551.777L908.693 550.714C909.505 547.122 911.502 543.92 914.352 541.635C917.203 539.35 920.736 538.121 924.368 538.149H1195.49L1196.8 538.118C1202.9 537.86 1208.74 535.476 1213.32 531.367C1217.9 527.258 1220.94 521.674 1221.94 515.556L1231.69 469.982L1231.86 468.787Z" fill="#221E1A"/>
</g>
<defs>
<clipPath id="clip0_253_35">
<rect width="1950" height="1676" fill="white"/>
</clipPath>
</defs>
</svg>
