<svg width="480" height="230" viewBox="0 0 480 230" xmlns="http://www.w3.org/2000/svg">
    <g fill="none" fill-rule="evenodd">
        <path d="m39.827 31.964-37.38 142.05c-9.27 36.083 27.746 66.607 61.403 50.635l136.45-55.035c22.874-10.855 27.856-41.217 9.652-58.811L108.337 12.597C85.628-9.35 47.685 1.376 39.827 31.964" fill="#FFE552"/>
        <path d="M98.788 84.044H85.26c-1.468 0-2.689 1.023-2.937 2.456L71.41 148.224c-.287 1.663 1.05 3.236 2.752 3.236h13.374c1.556 0 2.853-1.084 3.117-2.605l4.296-24.325a2.528 2.528 0 0 1 2.516-2.103h5.606a2.95 2.95 0 0 0 2.938-2.468l1.935-11.492c.28-1.662-1.057-3.226-2.754-3.226h-4.701c-1.135 0-2.027-1.047-1.836-2.158l2.887-15.802c.287-1.664-1.05-3.237-2.752-3.237m169.518 85.358c2.807 0 4.958 2.573 4.453 5.33l-4.839 27.106a4.362 4.362 0 0 1-4.304 3.581h-44.044c-.85 0-1.57.6-1.723 1.432l-.387 2.357a1.814 1.814 0 0 0 1.78 2.131h45.229c1.966 0 3.472 1.804 3.117 3.733l-1.723 9.087a3.051 3.051 0 0 1-3.012 2.507H203.26c-2.809 0-4.993-3.628-4.488-6.386l4.863-25.824a4.359 4.359 0 0 1 4.305-3.58h44.473c.85 0 1.178-.598 1.332-1.433l.515-2.586a1.815 1.815 0 0 0-1.78-2.131H209.2c-1.966 0-3.47-1.803-3.117-3.73l1.682-8.013a4.359 4.359 0 0 1 4.304-3.581zm-83.374-11.952c6.822 0 12.351 5.534 12.351 12.36 0 6.828-5.53 12.363-12.35 12.363-6.822 0-12.353-5.535-12.353-12.362s5.53-12.361 12.352-12.361zm91.592-10.23c1.629 0 2.912 1.443 2.746 3.032l-.022.165-1.853 11.082a2.987 2.987 0 0 1-2.788 2.501l-.184.005h-63.89c-1.63 0-2.913-1.441-2.747-3.032l.022-.165 1.852-11.084a2.99 2.99 0 0 1 2.789-2.499l.184-.005h63.891zM212.58 70a2.489 2.489 0 0 1 2.464 2.901l-.032.163-18.166 73.541a3.04 3.04 0 0 1-2.766 2.347l-.182.006h-12.576a2.49 2.49 0 0 1-2.49-2.694l.017-.162L189.765 72.6a3.039 3.039 0 0 1 2.816-2.595l.178-.005h19.82zm-67.093 16.184c17.018 0 30.019 12.735 30.038 29.423.022 16.968-13.24 29.912-30.495 29.763-16.522-.14-29.705-13.137-29.68-29.26.028-17.346 12.7-29.928 30.137-29.926zm138.781.275c2.185 0 3.901 1.944 3.657 4.078l-.027.189-1.564 9.263a4.269 4.269 0 0 1-4.034 3.568l-.21.005h-41.162a2.56 2.56 0 0 0-2.515 1.987l-.033.168-2.447 14.492c-.26 1.593.952 3.08 2.55 3.183l.166.006 38.026.171c2.173.009 3.879 1.942 3.643 4.064l-.025.188-1.645 10.017a4.27 4.27 0 0 1-4.036 3.586l-.212.005h-56.334c-2.754 0-4.912-2.471-4.564-5.161l.029-.193 8.644-46.063a4.27 4.27 0 0 1 4.031-3.548l.21-.005h57.852zm-138.801 16.397-.304.006c-6.8.203-12.547 6.162-12.466 12.924.089 7.29 6.023 12.826 13.429 12.52 7.193-.298 11.977-5.617 11.783-13.105-.183-7.071-5.84-12.545-12.746-12.34zm226.85-18.812H358.79a2.95 2.95 0 0 0-2.937 2.456l-10.912 61.724c-.288 1.663 1.05 3.236 2.753 3.236h13.372c1.556 0 2.855-1.084 3.117-2.605l4.297-24.325a2.527 2.527 0 0 1 2.515-2.103h5.606c1.47 0 2.696-1.03 2.94-2.468l1.933-11.492c.281-1.662-1.055-3.226-2.754-3.226h-4.7c-1.136 0-2.028-1.047-1.835-2.158l2.885-15.802c.288-1.664-1.05-3.237-2.752-3.237m97.488 0c1.703 0 3.041 1.573 2.753 3.237l-2.885 15.802c-.193 1.111.699 2.158 1.833 2.158h4.701c1.7 0 3.034 1.564 2.754 3.226l-1.934 11.492a2.95 2.95 0 0 1-2.938 2.468h-5.606a2.525 2.525 0 0 0-2.515 2.103l-4.648 24.325c-.262 1.521-1.561 2.605-3.117 2.605h-13.022c-1.704 0-3.04-1.573-2.754-3.236L453.342 86.5a2.95 2.95 0 0 1 2.936-2.456zm-29.92 2.348c2.693 0 4.796 2.466 4.353 5.11l-5.113 29.204a4.1 4.1 0 0 1-4.073 3.435h-29.597c-.815 0-1.496.574-1.629 1.373l-.34 2.035c-.177 1.057.664 2.044 1.74 2.044h31.065c1.885 0 3.356 1.727 3.046 3.577l-1.798 9.833c-.234 1.397-1.621 2.403-3.046 2.403H389.4c-2.694 0-4.6-2.467-4.158-5.11l4.767-28.536a4.1 4.1 0 0 1 4.073-3.433h29.833c.812 0 1.494-.575 1.628-1.374l.451-2.703c.177-1.058-.663-2.044-1.741-2.044H395.53c-1.885 0-3.356-1.728-3.048-3.579l1.47-8.802a4.1 4.1 0 0 1 4.073-3.433zm-125.108.067h-10.622a4.273 4.273 0 0 0-4.24 3.53l-9.014 50.347c-.495 2.77 1.701 5.377 4.532 5.377h40.61a4.271 4.271 0 0 0 4.232-3.502l1.857-10.024c.412-2.22-1.35-4.322-3.62-4.322h-23.367c-1.696 0-3.014-1.56-2.72-3.22l5.977-33.893c.39-2.214-1.365-4.293-3.625-4.293M40.774 128.306c-7.404.306-13.34-5.23-13.429-12.52-.081-6.762 5.666-12.72 12.466-12.924 6.909-.206 12.564 5.268 12.746 12.34.195 7.487-4.59 12.806-11.783 13.104m-.639-42.122C22.697 86.182 10.026 98.764 10 116.11c-.027 16.123 13.156 29.12 29.679 29.26 17.253.149 30.516-12.795 30.495-29.763-.02-16.688-13.02-29.423-30.039-29.423" fill="#332217"/>
    </g>
</svg>
