<svg width="1950" height="1676" viewBox="0 0 1950 1676" fill="none" xmlns="http://www.w3.org/2000/svg">
<path opacity="0.65" fill-rule="evenodd" clip-rule="evenodd" d="M281.451 250.085L10.4876 1278.08C-56.7096 1539.21 211.615 1760.1 455.591 1644.52L1444.7 1246.24C1610.51 1167.68 1646.63 947.956 1514.67 820.631L778.072 109.929C613.457 -48.8986 338.412 28.7239 281.451 250.085Z" fill="#FFE100"/>
<path d="M1858.95 1007.94C1858.95 973.135 1830.76 944.917 1795.98 944.917C1761.2 944.917 1733 973.135 1733 1007.95C1733 1042.76 1761.2 1070.98 1795.98 1070.98C1830.76 1070.98 1858.95 1042.76 1858.95 1007.94Z" fill="#221E1A"/>
<path d="M1942.3 500.163C1940.62 499.39 1938.8 498.993 1936.95 499H1936.94H1835.89L1834.98 499.026C1831.43 499.249 1828.07 500.686 1825.45 503.096C1822.84 505.505 1821.13 508.74 1820.62 512.258L1764.96 887.052L1764.88 887.878C1764.73 889.631 1764.95 891.394 1765.53 893.057C1766.1 894.72 1767.01 896.245 1768.21 897.537C1769.4 898.828 1770.85 899.857 1772.46 900.56C1774.07 901.262 1775.81 901.621 1777.57 901.615H1841.69L1842.62 901.585C1845.95 901.37 1849.11 900.091 1851.65 897.935C1854.19 895.779 1855.97 892.863 1856.72 889.617L1949.35 514.624L1949.51 513.793C1949.82 511.97 1949.72 510.102 1949.23 508.32C1948.74 506.538 1947.86 504.884 1946.67 503.476C1945.47 502.067 1943.98 500.936 1942.3 500.163Z" fill="#221E1A"/>
<path d="M1713.54 881.72C1712.07 881.051 1710.78 880.714 1708.84 880.714H1708.84L1635.55 877.786H1613.34C1611.99 877.786 1607.23 881.504 1606.61 882.065C1605.88 882.727 1602.2 887.13 1601.75 890.176L1559.73 1204.64L1559.73 1212.32C1559.61 1213.84 1559.8 1215.37 1560.31 1216.81C1560.81 1218.25 1561.61 1219.57 1562.66 1220.69C1563.71 1221.8 1565.23 1222.24 1566.65 1222.85C1568.07 1223.46 1569.59 1223.77 1571.14 1223.76H1650H1658C1660.92 1223.58 1668.77 1221.37 1671 1219.5C1673.23 1217.63 1676 1210 1676.5 1207L1719.63 896.516L1719.77 895.796C1720.04 894.218 1720.06 890.325 1719.63 888.782C1719.2 887.239 1718.43 885.808 1717.38 884.588C1716.33 883.368 1715.02 882.39 1713.54 881.72Z" fill="#221E1A"/>
<path d="M1472.87 876.071C1471.41 875.417 1470.1 875.094 1468.23 875.115L1468.23 875.115L1386.34 875.115L1377.71 875.115C1374.64 875.343 1369.67 878.357 1367.44 880.471C1365.2 882.584 1363.76 885.405 1363.35 888.459L1316.27 1200.11L1315.05 1212.23C1314.94 1213.75 1314.54 1216.45 1315.05 1217.88C1315.56 1219.32 1316.36 1220.63 1317.41 1221.74C1318.45 1222.85 1319.71 1223.73 1321.12 1224.32C1322.52 1224.91 1327.54 1225.03 1329.06 1225.01L1409.61 1224.32L1410.42 1224.29C1413.29 1224.07 1408.24 1221.69 1410.42 1219.8C1412.59 1217.9 1429.32 1210.49 1429.94 1207.67L1476.84 892.696L1476.97 891.974C1476.84 892.695 1477.42 886.56 1477.71 884.284C1478.01 882.008 1477.73 880.11 1476.68 878.9C1475.63 877.691 1474.33 876.725 1472.87 876.071Z" fill="#221E1A"/>
<path d="M1677.79 988.27C1678.92 978.395 1670.95 969.399 1660.81 969.399H1392.15L1391.18 969.423C1386.64 969.611 1382.31 971.344 1378.9 974.332C1375.49 977.32 1373.22 981.382 1372.46 985.84L1332.31 1198.99L1332.18 1199.88C1330.56 1212.33 1340.32 1225.01 1353.11 1225.01L1614.98 1223.76L1615.97 1223.74C1620.53 1223.55 1624.89 1221.79 1628.3 1218.77C1631.72 1215.75 1633.98 1211.64 1634.71 1207.15L1642.35 1160.79L1642.46 1159.92C1643.56 1150.11 1635.64 1132.43 1625.55 1132.39L1448.96 1131.6L1448.19 1131.57C1440.77 1131.1 1435.14 1124.22 1436.35 1116.84L1448.03 1067.08L1448.19 1066.3C1448.79 1063.67 1450.28 1061.33 1452.4 1059.66C1454.53 1057.98 1457.16 1057.08 1459.87 1057.11H1651.02L1651.99 1057.08C1656.54 1056.89 1660.57 1046.58 1663.98 1043.58C1667.39 1040.57 1669.66 1036.48 1670.4 1032.01L1677.67 989.144L1677.79 988.27Z" fill="#221E1A"/>
<path d="M1711.52 771.369L1654.53 815.762C1646.46 823.164 1630.24 818.671 1621.56 803.649L1547.54 702.636C1541.04 691.365 1519.24 694.213 1509.21 702.636L1399.49 811.363C1391.41 817.781 1373.92 821.707 1363.96 811.363L1320.64 765.5C1316.8 758.761 1316.87 743.255 1316.87 743.255C1318.27 735.625 1322.31 728.73 1328.29 723.783L1503.73 565.54C1520.47 551.479 1571.93 556.379 1582.75 575.209L1696.42 723.783C1700.25 729.131 1709.49 742.284 1711.52 746.759C1713.56 751.233 1716.56 766.894 1711.52 771.369Z" fill="#221E1A"/>
<path d="M1768.85 510.62C1769.84 500.554 1762.16 491.414 1752.41 491.414H1370.04L1368.94 491.446C1364.87 491.678 1361 493.374 1357.96 496.252C1354.92 499.131 1352.91 503.019 1352.25 507.275L1341.16 577.485L1341.03 578.53C1340.04 588.608 1347.72 597.735 1357.47 597.735H1739.84L1740.94 597.704C1745.01 597.473 1748.88 595.776 1751.92 592.894C1754.95 590.013 1756.97 586.12 1757.62 581.862L1768.71 511.665L1768.85 510.62Z" fill="#221E1A"/>
<path fill-rule="evenodd" clip-rule="evenodd" d="M402.199 766.58C348.71 768.793 305.826 728.762 305.183 676.049C304.598 627.154 346.117 584.072 395.242 582.597C445.155 581.107 486.009 620.689 487.324 671.826C488.732 725.964 454.164 764.425 402.199 766.58ZM397.583 462C271.605 461.986 180.065 552.965 179.877 678.392C179.682 794.976 274.921 888.956 394.288 889.968C518.93 891.045 614.747 797.449 614.595 674.755C614.45 554.086 520.534 462 397.583 462Z" fill="#221E1A"/>
<path fill-rule="evenodd" clip-rule="evenodd" d="M924.667 1206.24C877.802 1208.01 840.229 1175.91 839.666 1133.64C839.153 1094.43 875.53 1059.89 918.572 1058.71C962.303 1057.51 998.098 1089.25 999.25 1130.26C1000.48 1173.67 970.196 1204.51 924.667 1206.24ZM920.622 962C810.245 961.988 730.042 1034.94 729.877 1135.52C729.706 1229.01 813.151 1304.37 917.736 1305.18C1026.94 1306.05 1110.89 1230.99 1110.76 1132.61C1110.63 1035.84 1028.35 962 920.622 962Z" fill="#221E1A"/>
<path d="M650.358 933.719L637.32 1009.35C637.353 1018.63 624.585 1025.96 611.044 1024.45L461.552 1024.45C452.511 1023.44 441.112 1027.32 441.112 1040.96L424.152 1207.56C424.185 1216.81 416.876 1224.98 403.352 1223.5L311.233 1223.5C305.585 1222.9 300.452 1220.96 296.76 1218.03C293.069 1215.11 291.062 1211.4 291.102 1207.56L308.256 1067.5C308.291 1064.23 311.399 1035.95 308.256 1033.45C305.112 1030.94 295.922 1024.98 291.102 1024.45L116.403 1024.45C104.027 1023.05 91.2073 1012.2 91.1772 1003.72L105.983 931.048C108.001 921.627 120.599 918.182 134.131 919.698L637.32 919.698C648.981 921.008 650.33 925.719 650.358 933.719Z" fill="#221E1A"/>
<path d="M769.152 843.496C756.651 843.496 744.269 850.836 744.693 862.619L734.308 920.895C734.437 925.75 736.082 934.639 739.327 938.25C742.573 941.861 746.999 944.196 751.809 944.836L1146.01 944.836C1160.09 944.836 1170.41 937.587 1173.14 924.976L1180.8 868.44C1180.41 857.675 1175.98 848.431 1165.4 846.997L1034.8 847.154C1030.68 846.607 1026.89 844.607 1024.11 841.513C1021.33 838.42 1019.75 834.436 1019.64 830.277L1022.84 798.528C1022.71 793.658 1020.85 788.995 1017.58 785.381C1014.32 781.766 1009.87 779.437 1005.05 778.814L946.648 778.814C935.088 777.291 923.63 786.766 924.053 798.528L917.59 830.277C915.959 839.137 908.349 843.64 896.62 843.64C896.62 843.64 781.654 843.496 769.152 843.496Z" fill="#221E1A"/>
<path d="M1231.48 487.432C1233 474.162 1222.3 462.072 1208.68 462.072H848.028L846.719 462.103C840.632 462.357 834.816 464.686 830.242 468.702C825.669 472.717 822.615 478.176 821.59 484.167L772.942 735.609L772.761 736.809C770.592 753.538 784.045 768.904 801.213 768.904H1152.4L1153.72 768.873C1159.85 768.616 1165.7 766.256 1170.28 762.193C1174.87 758.13 1177.9 752.612 1178.88 746.573L1187.46 691.434L1187.62 690.265C1189.09 677.069 1178.45 665.048 1164.9 664.992L913.283 663.929L912.249 663.891C902.287 663.251 894.731 654.004 896.352 644.097L908.044 569.047L908.25 568.002C909.063 564.47 911.06 561.32 913.911 559.073C916.761 556.827 920.295 555.617 923.928 555.646H1195.1L1196.41 555.615C1202.52 555.361 1208.35 553.016 1212.93 548.975C1217.51 544.934 1220.56 539.444 1221.56 533.426L1231.31 488.608L1231.48 487.432Z" fill="#221E1A"/>
</svg>
